<svg width="39" height="39" viewBox="0 0 39 39" fill="none" xmlns="http://www.w3.org/2000/svg">
<path d="M14.4574 0C6.44798 0 0 6.44798 0 14.4574C0 22.4668 6.44798 28.9148 14.4574 28.9148C18.0264 28.9148 21.2779 27.6264 23.7944 25.4981L36.8494 38.553L38.553 36.8494L25.4981 23.7944C27.6264 21.2779 28.9148 18.0264 28.9148 14.4574C28.9148 6.44798 22.4668 0 14.4574 0ZM14.4574 2.40956C21.1319 2.40956 26.5052 7.78288 26.5052 14.4574C26.5052 21.1319 21.1319 26.5052 14.4574 26.5052C7.78288 26.5052 2.40956 21.1319 2.40956 14.4574C2.40956 7.78288 7.78288 2.40956 14.4574 2.40956Z" fill="white"/>
</svg>
